<svg version="1.1" id="Super-NetOps_Logo" xmlns="http://www.w3.org/2000/svg" xmlns:xlink="http://www.w3.org/1999/xlink" x="0px"
	 y="0px" viewBox="0 0 580 580" style="enable-background:new 0 0 580 580;" xml:space="preserve">
<path style="fill:#FFFFFF;" d="M290,0C129.8374023,0,0,129.8374023,0,290s129.8374023,290,290,290s290-129.8374634,290-290
	S450.1625977,0,290,0z M326.7158203,383.2841797l-25.4022827-25.4022827l56.5689087-56.5681763l25.4017334,25.4020996
	c20.2451172,20.2441406,53.1865234,20.2441406,73.4316406,0c20.2451172-20.2451172,20.2451172-53.1865234,0-73.4316406
	C446.5932617,243.1616211,433.2963867,238.1005859,420,238.1005859s-26.5932617,5.0610352-36.7158203,15.1835938l-130,130
	c-25.71875,25.71875-59.5009766,38.578125-93.2841797,38.578125s-67.5654297-12.859375-93.2841797-38.578125
	C41.7988281,358.3671875,28.0761719,325.2382812,28.0761719,290s13.7226562-68.3671875,38.6396484-93.2841797
	c51.4375-51.4375,135.1308594-51.4375,186.5683594,0l25.4020996,25.4017334l-56.5681152,56.5689087l-25.4023438-25.4022827
	c-20.2460938-20.2451172-53.1855469-20.2451172-73.4316406,0c-20.2451172,20.2451172-20.2451172,53.1865234,0,73.4316406
	c20.2460938,20.2441406,53.1855469,20.2441406,73.4316406,0l130-130c51.4365234-51.4375,135.1318359-51.4375,186.5683594,0
	C538.2011719,221.6328125,551.9238281,254.7617188,551.9238281,290s-13.7226562,68.3671875-38.6396484,93.2841797
	C461.8476562,434.7216797,378.1523438,434.7216797,326.7158203,383.2841797z"/>
</svg>
