<svg xmlns="http://www.w3.org/2000/svg" id="Super-NetOps_Logo" viewBox="0 0 1280 300">
  <path id="Super-NetOps_Logomark" fill="#FFF" d="M150,5C69.9187012,5,5,69.9187012,5,150s64.9187012,145,145,145s145-64.9187012,145-145	S230.0812988,5,150,5z M168.3579102,196.6420898l-12.7011719-12.7011719l28.2844849-28.2840576l12.7008667,12.7010498	c10.1225586,10.1220703,26.5932617,10.1220703,36.7158203,0c10.1225586-10.1225586,10.1225586-26.5932617,0-36.7158203	C228.2966309,126.5808105,221.6481934,124.050293,215,124.050293s-13.2966309,2.5305176-18.3579102,7.5917969l-65,65	C118.7827148,209.5014648,101.8916016,215.9311523,85,215.9311523s-33.7827148-6.4296875-46.6420898-19.2890625	C25.8994141,184.1835938,19.0380859,167.6191406,19.0380859,150s6.8613281-34.1835938,19.3198242-46.6420898	c25.71875-25.71875,67.5654297-25.71875,93.2841797,0l12.7010498,12.7008667l-28.2840576,28.2844238l-12.7011719-12.7011108	c-10.1230469-10.1225586-26.5927734-10.1225586-36.7158203,0c-10.1225586,10.1225586-10.1225586,26.5932617,0,36.7158203	c10.1230469,10.1220703,26.5927734,10.1220703,36.7158203,0l65-65c25.7182617-25.71875,67.565918-25.71875,93.2841797,0	C274.1005859,115.8164062,280.9619141,132.3808594,280.9619141,150s-6.8613281,34.1835938-19.3198242,46.6420898	C235.9238281,222.3608398,194.0761719,222.3608398,168.3579102,196.6420898z"/>
  <path id="Super-NetOps_Wordmark" fill="#FFF" d="M392.144043 175.7841797c6.3457031 0 10.9658203-1.0712891 13.8598633-3.2197266 2.8920898-2.1464844 4.3398438-5.1796875 4.3398438-9.1005859 0-2.3310547-.4897461-4.3398438-1.4697266-6.0195312s-2.3798828-3.1962891-4.2001953-4.5498047c-1.8198242-1.3525391-4.0380859-2.6118164-6.6499023-3.7797852-2.6142578-1.1660156-5.6000977-2.3100586-8.9599609-3.4296875-3.3598633-1.2119141-6.6040039-2.5419922-9.7299805-3.9902344-3.128418-1.4458008-5.8798828-3.2416992-8.2602539-5.3901367-2.3798828-2.1459961-4.2939453-4.7119141-5.7397461-7.699707-1.4482422-2.9863281-2.1699219-6.5800781-2.1699219-10.7802734 0-8.7719727 3.0317383-15.6557617 9.0996094-20.6499023 6.0664062-4.9916992 14.3261719-7.4897461 24.7802734-7.4897461 6.065918 0 11.4560547.6777344 16.1699219 2.0297852 4.7119141 1.3540039 8.421875 2.8242188 11.1298828 4.4101562l-5.4599609 14.2797852c-3.1738281-1.7719727-6.6499023-3.1259766-10.4296875-4.0600586-3.7802734-.9316406-7.6782227-1.3999023-11.6904297-1.3999023-4.7597656 0-8.4697266.9799805-11.1298828 2.9399414-2.659668 1.9599609-3.9897461 4.7143555-3.9897461 8.2602539 0 2.1479492.4418945 3.9897461 1.3300781 5.5297852.8857422 1.5400391 2.1455078 2.9179688 3.7797852 4.1298828 1.6318359 1.2143555 3.5458984 2.3339844 5.7402344 3.3603516 2.1914062 1.027832 4.5957031 2.0078125 7.2099609 2.9399414 4.5717773 1.6796875 8.6557617 3.3837891 12.25 5.1098633 3.5917969 1.7280273 6.6259766 3.7797852 9.0996094 6.1601562 2.472168 2.3798828 4.3623047 5.1796875 5.6704102 8.3994141 1.3056641 3.2197266 1.9599609 7.1181641 1.9599609 11.6894531 0 8.7744141-3.1040039 15.5644531-9.3100586 20.3701172-6.2080078 4.8085938-15.2841797 7.2099609-27.2299805 7.2099609-4.0141602 0-7.6782227-.2578125-10.9902344-.7695312-3.3139648-.5136719-6.2539062-1.1445312-8.8198242-1.8896484-2.5683594-.7460938-4.7841797-1.5166016-6.6499023-2.3105469-1.8681641-.7919922-3.3603516-1.515625-4.4799805-2.1699219l5.1796875-14.4199219c2.5200195 1.4003906 5.9262695 2.7998047 10.2202148 4.2001953 4.2919921 1.3994139 9.4716796 2.0996092 15.540039 2.0996092zm110.4589843 10.9199219c-3.2680664.8398438-7.5136719 1.7041016-12.7397461 2.5898438-5.2280273.8867188-10.9682617 1.3300781-17.2202148 1.3300781-5.8798828 0-10.8037109-.8398438-14.7700195-2.5195312-3.9677734-1.6796875-7.1396484-4.0117188-9.5200195-7-2.3798828-2.9863281-4.0839844-6.5556641-5.1098633-10.7099609-1.0283203-4.1523438-1.5400391-8.7021484-1.5400391-13.6503906v-41.0195312h16.9399414v38.359375c0 7.8408203 1.1420898 13.4404297 3.4301758 16.8007812 2.2856445 3.359375 6.2758789 5.0400391 11.9697266 5.0400391 2.0522461 0 4.222168-.0927734 6.5102539-.2802734 2.2861328-.1865234 3.9897461-.4199219 5.1098633-.7001953v-59.2197266h16.9399414v70.979492zm84.9790039-34.2998047c0 5.5996094-.7241211 10.734375-2.1704102 15.4003906-1.4477539 4.6679688-3.5239258 8.6796875-6.2299805 12.0400391-2.7080078 3.359375-6.0898438 5.9736328-10.1499023 7.8398438-4.0600586 1.8652344-8.6582031 2.7998047-13.7900391 2.7998047-3.4541016 0-6.6279297-.4199219-9.5200195-1.2597656-2.894043-.8398438-5.2739258-1.7724609-7.1396484-2.7998047v28.4199219h-16.9404297v-96.7397461c3.4521484-.9321289 7.7001953-1.8203125 12.7402344-2.6601562s10.3598633-1.2597656 15.9599609-1.2597656c5.7861328 0 10.9658203.8876953 15.5400391 2.659668 4.5717773 1.7739258 8.4702148 4.3183594 11.6899414 7.6298828 3.2202148 3.3144531 5.6918945 7.328125 7.4199219 12.0400391 1.7260742 4.7143552 2.590332 10.0102536 2.590332 15.8896482zm-17.3603515.2802734c0-7.5595703-1.7041016-13.4399414-5.1098633-17.6396484-3.4082031-4.2001953-8.8901367-6.300293-16.4501953-6.300293-1.5878906 0-3.2436523.0703125-4.9697266.2099609-1.7280273.1401367-3.4301758.4443359-5.1098633.9101562v41.8598633c1.4916992 1.0283203 3.4755859 1.9833984 5.949707 2.8701172 2.472168.8876953 5.1098633 1.3300781 7.9101562 1.3300781 6.1601562 0 10.6616211-2.1005859 13.5097656-6.3007812 2.8461916-4.1992187 4.2700197-9.8457031 4.2700197-16.9394531zm29.3994141 0c0-6.4399414.9555664-12.0854492 2.8696289-16.9399414 1.9121094-4.8515625 4.4560547-8.8896484 7.6303711-12.1098633 3.171875-3.2197266 6.8115234-5.6459961 10.9199219-7.2797852 4.105957-1.6318359 8.3056641-2.4501953 12.6000977-2.4501953 10.0795898 0 17.9418945 3.1279297 23.590332 9.3798828 5.6455078 6.2543945 8.4697266 15.5883789 8.4697266 27.9995117 0 .9345703-.0244141 1.984375-.0703125 3.1503906-.0478516 1.1679688-.1181641 2.2177734-.2099609 3.1494141h-48.2998047c.4658203 5.8798828 2.5415039 10.4306641 6.2299805 13.6503906 3.6855469 3.2197266 9.0297852 4.8300781 16.0297852 4.8300781 4.1064453 0 7.8623047-.3720703 11.2705078-1.1201172 3.4052734-.7460938 6.0898438-1.5400391 8.0498047-2.3798828l2.2402344 13.8603516c-.9345703.4677734-2.21875.9580078-3.8505859 1.4697266-1.6337891.5136719-3.5.9794922-5.5996094 1.3994141s-4.3642578.7705078-6.7900391 1.0507812c-2.4277344.2792969-4.9003906.4199219-7.4199219.4199219-6.4404297 0-12.0405273-.9580078-16.800293-2.8701172-4.7602539-1.9121094-8.6801758-4.5722656-11.7602539-7.9804688-3.0795898-3.4052734-5.3681641-7.4199219-6.8598633-12.0400391-1.4941408-4.6201171-2.2397462-9.6816405-2.2397462-15.189453zM648.7607422 145.125c0-2.3320312-.328125-4.550293-.9794922-6.6503906-.6542969-2.0996094-1.6103516-3.9199219-2.8701172-5.4599609s-2.7998047-2.7514648-4.6201172-3.6396484c-1.8203125-.8862305-3.9902344-1.3300781-6.5102539-1.3300781-2.6137695 0-4.8999023.4897461-6.8598633 1.4697266s-3.6181641 2.2641602-4.9702148 3.8500977c-1.3540039 1.5883789-2.4038086 3.4082031-3.1499023 5.4599609-.7480469 2.0541992-1.2597656 4.1542969-1.5400391 6.300293h31.5zm74.4804687-14.1401367c-1.4003906-.4658203-3.3378906-.9560547-5.8105469-1.4702148-2.4736328-.5117188-5.34375-.7700195-8.609375-.7700195-1.8681641 0-3.8505859.1884766-5.9501953.5600586-2.1005859.3740234-3.5703125.7001953-4.4101562.9799805v58.659668h-16.9404297v-69.7197266c3.2666016-1.2114258 7.3505859-2.355957 12.25-3.4296875 4.9003906-1.0717773 10.3359375-1.6098633 16.3105469-1.6098633 1.1201172 0 2.4257812.0698242 3.9199219.2099609 1.4921875.1396484 2.9863281.328125 4.4804688.5595703 1.4912109.234375 2.9394531.5141602 4.3398438.840332 1.3994141.328125 2.5195312.6298828 3.359375.909668l-2.9394533 14.2802734zm1.5400391 17.2197265h37.6601562v15.5395508H724.78125v-15.5395508zm119.9775391 40.7397461c-3.1738281-5.3203125-6.7197266-11.0361328-10.6396484-17.1503906-3.9199219-6.1113281-7.9804688-12.2714844-12.1806641-18.4794922-4.1992188-6.2055664-8.4697266-12.2255859-12.8095703-18.0595703-4.3398438-5.8320312-8.4697266-11.0820312-12.3896484-15.75v69.4394531h-17.3603516V91.9248047h14.4199219c3.7314453 3.9199219 7.7460938 8.5639648 12.0400391 13.9301758 4.2919922 5.3681641 8.6103516 10.9438477 12.9501953 16.7299805 4.3398438 5.7880859 8.5400391 11.5981445 12.5996094 17.4296875 4.0605469 5.8344727 7.6757812 11.2695312 10.8505859 16.3095703V91.9248047h17.5v97.0195312h-14.9804688zm31.9189453-36.2597656c0-6.4399414.9560547-12.0854492 2.8701172-16.9399414 1.9121094-4.8515625 4.4560547-8.8896484 7.6298828-12.1098633 3.171875-3.2197266 6.8125-5.6459961 10.9199219-7.2797852 4.1064453-1.6318359 8.3066406-2.4501953 12.6005859-2.4501953 10.0800781 0 17.9414062 3.1279297 23.5898438 9.3798828 5.6455078 6.2543945 8.4697266 15.5883789 8.4697266 27.9995117 0 .9345703-.0234375 1.984375-.0693359 3.1503906-.0488281 1.1679688-.1181641 2.2177734-.2109375 3.1494141h-48.2998047c.4658203 5.8798828 2.5419922 10.4306641 6.2304688 13.6503906 3.6855469 3.2197266 9.0302734 4.8300781 16.0302734 4.8300781 4.1054688 0 7.8613281-.3720703 11.2695312-1.1201172 3.40625-.7460938 6.0898438-1.5400391 8.0498047-2.3798828l2.2402344 13.8603516c-.9345703.4677734-2.2177734.9580078-3.8496094 1.4697266-1.6347656.5136719-3.5.9794922-5.6005859 1.3994141-2.0996094.4199219-4.3642578.7705078-6.7900391 1.0507812-2.4277344.2792969-4.8994141.4199219-7.4199219.4199219-6.4394531 0-12.0400391-.9580078-16.7998047-2.8701172s-8.6796875-4.5722656-11.7597656-7.9804688c-3.0800781-3.4052734-5.3681641-7.4199219-6.8603516-12.0400391-1.4941407-4.6201171-2.2402344-9.6816405-2.2402344-15.189453zm49.140625-7.5595703c0-2.3320312-.328125-4.550293-.9804688-6.6503906-.6542969-2.0996094-1.6103516-3.9199219-2.8701172-5.4599609s-2.7998047-2.7514648-4.6201172-3.6396484c-1.8193359-.8862305-3.9892578-1.3300781-6.5097656-1.3300781-2.6142578 0-4.8994141.4897461-6.8603516 1.4697266-1.9599609.9799805-3.6171875 2.2641602-4.9697266 3.8500977-1.3535156 1.5883789-2.4042969 3.4082031-3.1494141 5.4599609-.7480469 2.0541992-1.2607422 4.1542969-1.5400391 6.300293h31.5000002zm32.0595703-48.7202148l16.9394531-2.7998047v22.1196289h26.0400391v14.1401367h-26.0400391v29.8198242c0 5.8798828.9316406 10.0800781 2.7998047 12.5996094 1.8662109 2.5205078 5.0400391 3.7802734 9.5205078 3.7802734 3.0800781 0 5.8095703-.3261719 8.1894531-.9804688 2.3798828-.6513672 4.2705078-1.2597656 5.6699219-1.8193359l2.8007812 13.4394531c-1.9599609.8398438-4.5283203 1.7041016-7.7001953 2.5898438-3.1738281.8867188-6.9082031 1.3300781-11.2001953 1.3300781-5.2285156 0-9.5898438-.6992188-13.0898438-2.0996094s-6.2783203-3.4296875-8.3300781-6.0898438c-2.0537109-2.6601562-3.5-5.8798828-4.3398438-9.6601562s-1.2597656-8.0957031-1.2597656-12.9501953V96.4047852zm149.2402344 43.9599609c0 8.3081055-1.2382812 15.6333008-3.7099609 21.9799805-2.4746094 6.3476562-5.8339844 11.6435547-10.0800781 15.8896484-4.2480469 4.2480469-9.21875 7.4443359-14.9101562 9.5898438-5.6943359 2.1464844-11.7597656 3.2197266-18.2001953 3.2197266-6.4394531 0-12.5302734-1.0732422-18.2695312-3.2197266-5.7402344-2.1455078-10.734375-5.3417969-14.9804688-9.5898438-4.2480469-4.2460938-7.6298828-9.5419922-10.1494141-15.8896484-2.5205078-6.3466797-3.7802734-13.671875-3.7802734-21.9799805 0-8.3056641 1.2597656-15.6098633 3.7802734-21.9101562 2.5195312-6.2998047 5.9492188-11.5957031 10.2890625-15.8896484 4.3408203-4.2919922 9.3564453-7.512207 15.0507812-9.6601562 5.6914062-2.1459961 11.7119141-3.2197266 18.0595703-3.2197266 6.3457031 0 12.3662109 1.0737305 18.0605469 3.2197266 5.6914062 2.1479492 10.6611328 5.3681641 14.9091797 9.6601562 4.2460938 4.2939453 7.6308594 9.5898438 10.1503906 15.8896484 2.5195312 6.3002929 3.7802734 13.6044921 3.7802734 21.9101562zm-75.7402344 0c0 5.3203125.6513672 10.1503906 1.9599609 14.4897461 1.3056641 4.3398438 3.1962891 8.0283203 5.6699219 11.0595703 2.4716797 3.0341797 5.4824219 5.390625 9.0302734 7.0703125 3.5458984 1.6796875 7.5595703 2.5195312 12.0400391 2.5195312 4.3857422 0 8.3515625-.8398438 11.8994141-2.5195312 3.5458984-1.6796875 6.5566406-4.0361328 9.0302734-7.0703125 2.4716797-3.03125 4.3623047-6.7197266 5.6699219-11.0595703 1.3056641-4.3393555 1.9599609-9.1694336 1.9599609-14.4897461 0-5.3198242-.6542969-10.1499023-1.9599609-14.4897461-1.3076172-4.340332-3.1982422-8.0258789-5.6699219-11.0600586-2.4736328-3.0322266-5.484375-5.3901367-9.0302734-7.0703125-3.5478516-1.6796875-7.5136719-2.5200195-11.8994141-2.5200195-4.4804688 0-8.4941406.840332-12.0400391 2.5200195-3.5478516 1.6801758-6.5585938 4.0600586-9.0302734 7.1401367-2.4736328 3.0800781-4.3642578 6.7680664-5.6699219 11.0600586-1.3085937 4.2939453-1.9599609 9.1000977-1.9599609 14.4199219zm158.7587891 12.0395508c0 5.5996094-.7236328 10.734375-2.1699219 15.4003906-1.4482422 4.6679688-3.5234375 8.6796875-6.2294922 12.0400391-2.7080078 3.359375-6.0898438 5.9736328-10.1503906 7.8398438-4.0595703 1.8652344-8.6582031 2.7998047-13.7900391 2.7998047-3.4541016 0-6.6279297-.4199219-9.5195312-1.2597656-2.8945312-.8398438-5.2744141-1.7724609-7.140625-2.7998047v28.4199219h-16.9394531v-96.7397461c3.4511719-.9321289 7.7001953-1.8203125 12.7392578-2.6601562 5.0400391-.8398438 10.3603516-1.2597656 15.9609375-1.2597656 5.7851562 0 10.9658203.8876953 15.5390625 2.659668 4.5722656 1.7739258 8.4707031 4.3183594 11.6904297 7.6298828 3.2197266 3.3144531 5.6923828 7.328125 7.4199219 12.0400391 1.7255858 4.7143552 2.5898437 10.0102536 2.5898437 15.8896482zm-17.359375.2802734c0-7.5595703-1.7041016-13.4399414-5.1103516-17.6396484-3.4082031-4.2001953-8.8896484-6.300293-16.4501953-6.300293-1.5878906 0-3.2441406.0703125-4.9697266.2099609-1.7285156.1401367-3.4296875.4443359-5.1103516.9101562v41.8598633c1.4921875 1.0283203 3.4765625 1.9833984 5.9501953 2.8701172 2.4716797.8876953 5.1103516 1.3300781 7.9101562 1.3300781 6.1601562 0 10.6621094-2.1005859 13.5097656-6.3007812 2.8457033-4.1992187 4.270508-9.8457031 4.270508-16.9394531zm51.5185546 24.0800781c4.4794922 0 7.7460938-.5361328 9.7998047-1.6103516 2.0517578-1.0722656 3.0800781-2.9160156 3.0800781-5.5302734 0-2.4257812-1.0976562-4.4316406-3.2900391-6.0195312-2.1943359-1.5859375-5.8095703-3.3125-10.8496094-5.1796875-3.0800781-1.1201172-5.9042969-2.3105469-8.4707031-3.5703125-2.5673828-1.2597656-4.7841797-2.7304688-6.6494141-4.409668-1.8681641-1.6801758-3.3378906-3.7099609-4.4101562-6.0898438-1.0742188-2.3803711-1.6103516-5.2958984-1.6103516-8.75 0-6.7202148 2.4716797-12.0161133 7.4199219-15.8901367 4.9462891-3.8720703 11.6660156-5.8100586 20.1601562-5.8100586 4.2919922 0 8.4003906.3979492 12.3203125 1.1899414 3.9199219.7939453 6.8603516 1.5639648 8.8203125 2.3100586l-3.080078 13.7202149c-1.8681641-.840332-4.2480469-1.6103516-7.140625-2.3100586-2.8935547-.7001953-6.2539062-1.050293-10.0800781-1.050293-3.4541016 0-6.2539062.5844727-8.3994141 1.75-2.1484375 1.168457-3.2207031 2.9643555-3.2207031 5.3901367 0 1.2138672.2109375 2.2880859.6308594 3.2202148.4199219.934082 1.1416016 1.7978516 2.1699219 2.5898438 1.0253906.7939453 2.3798828 1.5878906 4.0595703 2.3798828 1.6796875.7939453 3.7324219 1.6098633 6.1601562 2.4501953 4.0117188 1.4941406 7.4199219 2.9638672 10.2197266 4.409668 2.7998047 1.4477539 5.1103516 3.0795898 6.9306641 4.8999023 1.8193359 1.8203125 3.1494141 3.8984375 3.9892578 6.2294922.8398438 2.3339844 1.2607422 5.1347656 1.2607422 8.4003906 0 7-2.5908203 12.2978516-7.7705078 15.8896484s-12.578125 5.390625-22.1894531 5.390625c-6.4404297 0-11.6201172-.5380859-15.5400391-1.6103516-3.9208984-1.0722656-6.6748047-1.9355469-8.2607422-2.5898438l2.9404297-14.1396484c2.5195312 1.0273438 5.5302734 2.0078125 9.0302734 2.9394531 3.5.9345705 7.4892578 1.4003908 11.9697265 1.4003908z"/>
</svg>
