<svg version="1.1" id="Super-NetOps_Logo" xmlns="http://www.w3.org/2000/svg" xmlns:xlink="http://www.w3.org/1999/xlink" x="0px"
	 y="0px" viewBox="0 0 580 580" style="enable-background:new 0 0 580 580;" xml:space="preserve">
<g id="Super-NetOps_Logomark">
	<circle fill="#000" cx="290" cy="290" r="290"/>
	<path style="fill:#FEFEFE;" d="M66.7158203,196.7158203c51.4375-51.4375,135.1308594-51.4375,186.5683594,0l25.4020996,25.4017334
		l-56.5681152,56.5689087l-25.4023438-25.4022827c-20.2460938-20.2451172-53.1855469-20.2451172-73.4316406,0
		c-20.2451172,20.2451172-20.2451172,53.1865234,0,73.4316406c20.2460938,20.2441406,53.1855469,20.2441406,73.4316406,0l130-130
		c51.4365234-51.4375,135.1318359-51.4375,186.5683594,0C538.2011719,221.6328125,551.9238281,254.7617188,551.9238281,290
		s-13.7226562,68.3671875-38.6396484,93.2841797c-51.4365234,51.4375-135.1318359,51.4375-186.5683594,0l-25.4022827-25.4022827
		l56.5689087-56.5681763l25.4017334,25.4020996c20.2451172,20.2441406,53.1865234,20.2441406,73.4316406,0
		c20.2451172-20.2451172,20.2451172-53.1865234,0-73.4316406C446.5932617,243.1616211,433.2963867,238.1005859,420,238.1005859
		s-26.5932617,5.0610352-36.7158203,15.1835938l-130,130c-25.71875,25.71875-59.5009766,38.578125-93.2841797,38.578125
		s-67.5654297-12.859375-93.2841797-38.578125C41.7988281,358.3671875,28.0761719,325.2382812,28.0761719,290
		S41.7988281,221.6328125,66.7158203,196.7158203z"/>
</g>
</svg>
